<svg xmlns="http://www.w3.org/2000/svg" id="Layer_1" x="0" y="0" enable-background="new 0 0 128 128" version="1.1" viewBox="0 0 128 128" xml:space="preserve"><polyline id="XMLID_1416_" fill="#e4f2f4" points="81 36 85 19 105 19 108 36"/><path id="XMLID_1415_" fill="#71ba38" d="M105,5H85c-1.7,0-3,1.3-3,3v8c0,1.7,1.3,3,3,3h20c1.7,0,3-1.3,3-3V8C108,6.3,106.7,5,105,5z"/><path id="XMLID_1414_" fill="#d8c094" d="M75,43c0-3.9,3.1-7,7-7h25c3.9,0,7,3.1,7,7v76c0,2.8-2.2,5-5,5H80c-2.8,0-5-2.3-5-5V43z"/><rect id="XMLID_1405_" width="39" height="58" x="75" y="53" fill="#a65aa8"/><rect id="XMLID_1700_" width="7.5" height="13" x="106.5" y="111" fill="#ccb483"/><path id="XMLID_1699_" fill="#ccb483" d="M114,53.2h-7.5V36h0.5c3.9,0,7,3.1,7,7V53.2z"/><rect id="XMLID_1696_" width="7.5" height="58" x="106.5" y="53" fill="#954c9b"/><line id="XMLID_1404_" x1="108" x2="105" y1="36" y2="19" fill="none" stroke="#31352e" stroke-linecap="round" stroke-miterlimit="10" stroke-width="6"/><line id="XMLID_1403_" x1="85" x2="81" y1="19" y2="36" fill="none" stroke="#31352e" stroke-linecap="round" stroke-miterlimit="10" stroke-width="6"/><path id="XMLID_1402_" fill="none" stroke="#31352e" stroke-linecap="round" stroke-miterlimit="10" stroke-width="6" d="M75,77V43c0-3.9,3.1-7,7-7h25c3.9,0,7,3.1,7,7v76c0,2.8-2.2,5-5,5H80c-2.8,0-5-2.3-5-5V98"/><path id="XMLID_1401_" fill="none" stroke="#31352e" stroke-linecap="round" stroke-miterlimit="10" stroke-width="6" d="M105,5H85c-1.7,0-3,1.3-3,3v8c0,1.7,1.3,3,3,3h20c1.7,0,3-1.3,3-3V8C108,6.3,106.7,5,105,5z"/><line id="XMLID_1400_" x1="75" x2="114" y1="53" y2="53" fill="none" stroke="#31352e" stroke-linecap="round" stroke-miterlimit="10" stroke-width="6"/><line id="XMLID_1399_" x1="114" x2="75" y1="111" y2="111" fill="none" stroke="#31352e" stroke-linecap="round" stroke-miterlimit="10" stroke-width="6"/><ellipse id="XMLID_1398_" cx="94.5" cy="82" fill="#b980bc" rx="10.5" ry="11"/><path id="XMLID_1449_" fill="#ead8c9" d="M60.2,49.6l2.2-8.6l-12.1,4c-2.8,14.9-14.3,21.2-25.5,25.9c-6.7,2.8-11.6,7.7-13.2,14.2  c-3.2,12.9,8.2,27,25.6,31.3s34.2-2.6,37.4-15.5c1.6-6.3-0.4-13-4.8-18.5C62.3,72.9,57.2,61.3,60.2,49.6z"/><g id="XMLID_1427_"><g id="XMLID_1429_"><g id="XMLID_1431_"><path id="XMLID_1432_" fill="#d3bdaa" d="M68.2,80.1c1.4,4.6,1.6,9.5,0.4,14.2c-3,11.9-14,20.2-28.2,22.9     c16.3,2.9,31.3-4,34.3-16.1c1.6-6.3-0.4-13-4.8-18.5C69.3,81.6,68.7,80.8,68.2,80.1z"/></g></g></g><g id="XMLID_1423_"><g id="XMLID_1424_"><g id="XMLID_1425_"><path id="XMLID_1426_" fill="#d3bdaa" d="M54.3,76.9c1.7,4.4,1.7,10.2,0.8,14.9c-1.9,9.5-10.8,19.8-21,23.5     c13.8,5.2,24.8-4.5,27.1-16.8C64,84.3,54.9,77.7,54.3,76.9z"/></g></g></g><g id="XMLID_1421_"><path id="XMLID_1422_" fill="#fff3e6" d="M18.4,82.9c1.2-4.7,3.7-8.9,7.2-12.4c-0.3,0.1-0.6,0.3-0.9,0.4   c-6.7,2.8-11.6,7.7-13.2,14.2c-2.7,11.1,5.4,23.1,18.8,28.9C20.6,105.3,15.7,93.8,18.4,82.9z"/></g><path id="XMLID_1438_" fill="none" stroke="#31352e" stroke-linecap="round" stroke-miterlimit="10" stroke-width="6" d="M60.2,49.6l2.2-8.6l-12.1,4c-3,14.4-14.3,21.2-25.5,25.9c-6.7,2.8-11.6,7.7-13.2,14.2  c-3.2,12.9,8.2,27,25.6,31.3s34.2-2.6,37.4-15.5c1.6-6.3-0.4-13-4.8-18.5C62.3,72.9,57.2,61.3,60.2,49.6z"/><path id="XMLID_1437_" fill="none" stroke="#31352e" stroke-linecap="round" stroke-miterlimit="10" stroke-width="6" d="M54.3,76.9c6.1,4.9,9,13.8,6.7,22.9c-3,11.8-13.6,19.3-23.8,16.7  c-10.2-2.6-16.1-14.2-13.1-26c2.2-8.9,8.8-15.3,16.2-16.8"/><line id="XMLID_1436_" x1="38.5" x2="36.9" y1="116.8" y2="123.1" fill="none" stroke="#31352e" stroke-linecap="round" stroke-miterlimit="10" stroke-width="6"/><line id="XMLID_1435_" x1="38.2" x2="32.2" y1="117" y2="120.7" fill="none" stroke="#31352e" stroke-linecap="round" stroke-miterlimit="10" stroke-width="6"/><line id="XMLID_1434_" x1="38.2" x2="41.8" y1="117" y2="123.1" fill="none" stroke="#31352e" stroke-linecap="round" stroke-miterlimit="10" stroke-width="6"/></svg>