<svg xmlns="http://www.w3.org/2000/svg" id="Layer_1" x="0" y="0" enable-background="new 0 0 128 128" version="1.1" viewBox="0 0 128 128" xml:space="preserve"><path id="XMLID_637_" fill="#4cbf0a" d="M107.9,44.3c-11.6-12.1-29.5-13.2-44.6-5.5c-15.2-7.7-33.1-6.7-44.8,5.4  C3.5,60,4.8,86.7,21.3,104.1c11.8,12.4,28.2,16.6,42,12.3c13.8,4.1,30-0.1,41.7-12.3C121.6,86.8,122.9,60.1,107.9,44.3z"/><g id="XMLID_635_"><g id="XMLID_1591_"><g id="XMLID_1592_"><path id="XMLID_1593_" fill="#48af05" d="M116.5,59.5c-0.4,14.3-6.2,28.8-17,40.2C90,109.7,78,115.5,66,117.1     c13.2,2.9,28.2-1.5,39.1-13C117,91.6,121,74.1,116.5,59.5z"/></g></g></g><path id="XMLID_634_" fill="#339a01" d="M60.6,21.2c0,0,4.9-22.1,30.7-6.7"/><path id="XMLID_632_" fill="#107400" d="M91.4,14.4c0,0-13.2,24.9-30.7,6.7"/><path id="XMLID_629_" fill="none" stroke="#31352e" stroke-linecap="round" stroke-miterlimit="10" stroke-width="6" d="M107.9,44.3c-11.6-12.1-29.5-13.2-44.6-5.5c-15.2-7.7-33.1-6.7-44.8,5.4  C3.5,60,4.8,86.7,21.3,104.1c11.8,12.4,28.2,16.6,42,12.3c13.8,4.1,30-0.1,41.7-12.3C121.6,86.8,122.9,60.1,107.9,44.3z"/><path id="XMLID_628_" fill="none" stroke="#31352e" stroke-linecap="round" stroke-miterlimit="10" stroke-width="6" d="M63,37.9c0,0,1.5-14.4-9.3-25.2"/><path id="XMLID_627_" fill="none" stroke="#31352e" stroke-linecap="round" stroke-miterlimit="10" stroke-width="6" d="M60.6,21.2c0,0,4.9-22.1,30.7-6.7C90.4,16.4,77.7,38.4,60.6,21.2z"/><ellipse id="XMLID_626_" cx="26.8" cy="53.9" fill="#7dd841" rx="14.4" ry="7.5" transform="rotate(-50.817 26.777 53.94)"/></svg>