<svg xmlns="http://www.w3.org/2000/svg" id="Layer_1" x="0" y="0" enable-background="new 0 0 128 128" version="1.1" viewBox="0 0 128 128" xml:space="preserve"><line id="XMLID_131_" x1="93" x2="74" y1="14" y2="55" fill="none" stroke="#cd9356" stroke-linecap="round" stroke-linejoin="round" stroke-miterlimit="10" stroke-width="6"/><path id="XMLID_36_" fill="#e6e6e6" d="M117.3,71h-89c0,18.5,8.5,35.1,21.8,46h40.1C106.3,108.1,117.3,90.8,117.3,71z"/><path id="XMLID_74_" fill="#f4f4f4" d="M39.5,117h10.5c-13.3-10.9-21.8-27.5-21.8-46h-16c0,14.8,6.4,29.1,17.4,39  C32.7,112.7,36,115.1,39.5,117z"/><path id="XMLID_128_" fill="#faf5e5" d="M108.5,71c5.7-11.2-3-19.9-11.7-19.7c-1.4,0-2.7,0.2-3.9,0.6c0-0.1,0-0.1,0-0.2  c0-8.6-7-15.6-15.6-15.6c-4.7,0-9,2.1-11.8,5.4c-3.7-3.4-8.6-5.4-14.1-5.4c-9.5,0-17.5,6.3-20.1,14.9c-7.6,1.4-14,12-14,20H108.5z"/><g id="XMLID_71_"><path id="XMLID_277_" fill="#d8ccb8" d="M100.8,65.7l-1.6,0.5c-0.9,0.3-1.8,0-2.1-0.9c-0.3-0.9,0.2-1.7,1.1-2l1.6-0.5    c0.9-0.3,1.8,0,2.1,0.9C102.2,64.6,101.6,65.4,100.8,65.7z"/></g><g id="XMLID_126_"><path id="XMLID_127_" fill="#fff" d="M38,56c1.3-10.3,10.9-16.2,19.5-16.2c0.6,0,1.2,0,1.8,0.1c-2.9-1.8-6.3-2.9-10-2.9   c-8.6,0-15.9,5.9-18.3,13.9c-6.9,1.5-12,7.7-12,15.2l8.5-0.2C27.5,60.9,32.1,56.1,38,56z"/></g><path id="XMLID_35_" fill="none" stroke="#31352e" stroke-linecap="round" stroke-linejoin="round" stroke-miterlimit="10" stroke-width="6" d="M107,71c0,0,3-2.3,3-7.5c0-7.7-5.9-12.2-13.2-12.2c-1.4,0-2.7,0.2-3.9,0.6c0-0.1,0-0.1,0-0.2  c0-8.6-7-15.6-15.6-15.6c-4.7,0-9,2.1-11.8,5.4c-3.7-3.4-8.6-5.4-14.1-5.4c-9.5,0-17.5,6.3-20.1,14.9c-4.2,0.8-11,4.6-12.3,12.2"/><path id="XMLID_2_" fill="none" stroke="#31352e" stroke-linejoin="round" stroke-miterlimit="10" stroke-width="6" d="M90.1,117c16.2-8.9,27.2-26.2,27.2-46h-105c0,19.8,11,37.1,27.2,46H90.1z"/><line id="XMLID_120_" x1="107" x2="81" y1="23" y2="60" fill="none" stroke="#cd9356" stroke-linecap="round" stroke-linejoin="round" stroke-miterlimit="10" stroke-width="6"/><path id="XMLID_8_" fill="none" stroke="#31352e" stroke-linecap="round" stroke-miterlimit="10" stroke-width="6" d="M64.4,58.4c3.8-3.8,10-3.8,13.8,0c1.6,1.6,2.5,3.5,2.8,5.5"/><path id="XMLID_84_" fill="none" stroke="#31352e" stroke-linecap="round" stroke-miterlimit="10" stroke-width="6" d="M56,62c0-2.8,2.2-5,4.9-5c1.1,0,2.2,0.3,3,1"/><g id="XMLID_116_"><path id="XMLID_320_" fill="#d8ccb8" d="M45.7,64.2c-0.5,0.1-1,0-1.4-0.3L42,62.1c-0.8-0.6-1-1.8-0.4-2.6c0.6-0.8,1.8-1,2.6-0.4    l2.4,1.8c0.8,0.6,1,1.8,0.4,2.6C46.6,63.9,46.2,64.1,45.7,64.2z"/></g><g id="XMLID_141_"><path id="XMLID_324_" fill="#d8ccb8" d="M46,54.1c-0.8,0.8-1.9,0.6-2.7-0.3l-1.5-1.5c-0.8-0.8-1.1-1.9-0.3-2.7    c0.8-0.8,1.9-0.6,2.7,0.3l1.5,1.5C46.6,52.2,46.8,53.3,46,54.1z"/></g><g id="XMLID_70_"><path id="XMLID_325_" fill="#d8ccb8" d="M55.8,52c-0.9-0.2-1.2-1.1-0.9-2.1l0.4-1.7c0.2-0.9,0.9-1.6,1.8-1.3    c0.9,0.2,1.2,1.1,0.9,2.1l-0.4,1.7C57.4,51.6,56.8,52.2,55.8,52z"/></g><g id="XMLID_119_"><path id="XMLID_330_" fill="#d8ccb8" d="M50,48c-0.9,0.2-1.6-0.5-1.8-1.4l-0.4-1.7c-0.2-0.9,0.1-1.8,1-2c0.9-0.2,1.6,0.5,1.8,1.4    l0.4,1.7C51.3,46.9,51,47.8,50,48z"/></g><g id="XMLID_142_"><path id="XMLID_399_" fill="#d8ccb8" d="M68.4,50.1c-0.4-0.1-0.7-0.3-0.9-0.6c-0.4-0.6-0.3-1.5,0.4-2l1-0.7c0.6-0.4,1.5-0.3,2,0.4    c0.4,0.6,0.3,1.5-0.4,2l-1,0.7C69.2,50.1,68.8,50.2,68.4,50.1z"/></g><g id="XMLID_143_"><path id="XMLID_408_" fill="#d8ccb8" d="M93.2,63.7l-1,1.3c-0.5,0.7-1.5,1-2.2,0.4c-0.7-0.5-0.8-1.5-0.2-2.2l1-1.3    c0.5-0.7,1.5-1,2.2-0.4C93.7,62,93.7,63,93.2,63.7z"/></g><g id="XMLID_72_"><path id="XMLID_453_" fill="#d8ccb8" d="M80.6,48.2l0.6,1.5c0.3,0.9,0.1,1.8-0.8,2.1c-0.9,0.3-1.7-0.1-2-1l-0.6-1.5    c-0.3-0.9-0.1-1.8,0.8-2.1C79.4,46.8,80.2,47.3,80.6,48.2z"/></g><g id="XMLID_144_"><path id="XMLID_461_" fill="#d8ccb8" d="M35.2,67.1c-0.3,0-0.6-0.1-0.9-0.2l-2.6-1.1c-1.2-0.5-1.7-1.8-1.2-2.9    c0.5-1.2,1.8-1.7,2.9-1.2l2.6,1.1c1.2,0.5,1.7,1.8,1.2,2.9C37,66.6,36.1,67.1,35.2,67.1z"/></g></svg>