<svg xmlns="http://www.w3.org/2000/svg" id="Layer_1" x="0" y="0" enable-background="new 0 0 128 128" version="1.1" viewBox="0 0 128 128" xml:space="preserve"><path id="XMLID_510_" fill="#a81647" d="M70.3,75.3C63,86.1,62,95.9,65.2,103.7c-6.3,11.4-14.6,20.1-14.6,20.1s-38.3-8.2-44.8-29  c-5.6-18.1,6.6-30.5,24.6-36.1c17.9-5.6,34.9-2.3,40.6,15.4C70.8,74.6,70.5,75,70.3,75.3z"/><path id="XMLID_473_" fill="#8344aa" d="M92.2,55.4C92.2,55.4,92.2,55.4,92.2,55.4c-3.7,2-7.3,4.5-10.7,7.4C77.6,66.1,74,70,71.1,74.2  c-4.3-13.3-15-18.5-27.6-17.8c12.7-10,16.2-26.1,16.2-26.1c2.6,0.2,6.1-0.1,9.8-2c1.3,6.4,6.6,10.3,6.6,10.3s8.2-3,10.5-9  c3.7,3.5,8.5,3.4,9.4,3.5C96.1,33.1,95.3,45.9,92.2,55.4z"/><path id="XMLID_93_" fill="#68478e" d="M96.1,33.1c0,0-1.1,13.1-3.9,22.3c-3.6,2-7.2,4.5-10.6,7.4c4.8-9.5,10.3-30.3,10.3-30.3  C93,32.8,95.1,33,96.1,33.1z"/><path id="XMLID_10_" fill="#4caf50" d="M100.5,32.5c-0.8-13.9-11.1-22-23.6-21.6c-10.2,0.3-18.4,4.9-21.7,18.5c0,0,6.7,2.8,14.4-1  c1.3,6.4,6.6,10.3,6.6,10.3s8.2-3,10.5-9C93,35,100.5,32.5,100.5,32.5z"/><path id="XMLID_579_" fill="#529e52" d="M76.4,10.9c6.7,1.4,15.9,9.4,16.2,21.8c4.3,1,7.8-0.2,7.8-0.2C99,9.8,76.6,10.9,76.4,10.9z"/><path id="XMLID_52_" fill="none" stroke="#31352e" stroke-linecap="round" stroke-linejoin="round" stroke-miterlimit="10" stroke-width="6" d="M92.3,54.7c2.2-7.3,3.5-14.7,3.8-21.6"/><path id="XMLID_26_" fill="none" stroke="#9172c1" stroke-linecap="round" stroke-miterlimit="10" stroke-width="6" d="M63.4,40.4c-1.8,5.2-4.9,10.5-10.8,16.3"/><path id="XMLID_542_" fill="#513b72" d="M75.4,68.8c-1.6,1.7-3,3.5-4.3,5.4c-4.3-13.3-15-18.5-27.6-17.8c2.3-1.8,4.3-3.8,6-5.9  C61.5,51.7,70.7,58.1,75.4,68.8z"/><path id="XMLID_585_" fill="none" stroke="#31352e" stroke-linecap="round" stroke-linejoin="round" stroke-miterlimit="10" stroke-width="6" d="M95.1,33.1c3.1,0.2,5.4-0.5,5.4-0.5c-0.8-13.9-11.1-22-23.6-21.6c-10.2,0.2-18.4,4.8-21.7,18.4  c0,0,1.8,0.7,4.5,0.9c2.6,0.2,6.2-0.1,9.8-2c1.3,6.4,6.6,10.3,6.6,10.3s8.2-3,10.5-9C89.4,32,92.6,32.9,95.1,33.1z"/><path id="XMLID_524_" fill="none" stroke="#31352e" stroke-linecap="round" stroke-linejoin="round" stroke-miterlimit="10" stroke-width="6" d="M83.1,11.2c4.4-6.4,12.5-8.4,18-4.5"/><path id="XMLID_430_" fill="#841439" d="M64.8,103.8c-4,7.1-9.1,13.7-13.8,18.7c-1.6-0.9-3.9-1.8-6.9-3c-8-3.2-19.5-7.8-24.2-15.9  c4,0.9,9.2,0.6,15.1-0.9c4-1,8-2.5,11.7-4.3c3.7-1.8,7.1-3.9,9.9-6.2c4.9-4,8-7.5,10-10.6C62.6,89.9,62.3,97.4,64.8,103.8z"/><path id="XMLID_407_" fill="none" stroke="#31352e" stroke-linecap="round" stroke-miterlimit="10" stroke-width="6" d="M64.8,104.4c-6.2,11-14.2,19.4-14.2,19.4s-38.3-8.2-44.8-29C1.7,81.6,7.2,71.4,17.6,64.7"/><path id="XMLID_511_" fill="none" stroke="#31352e" stroke-linecap="round" stroke-miterlimit="10" stroke-width="6" d="M41.8,56.5c0.5-0.1,1.1-0.1,1.6-0.1c12.8-0.6,23.5,4.6,27.8,18.2"/><path id="XMLID_60_" fill="#81ad02" d="M30.9,47.5l-1.6-5.6L19,45.7l2.2,5.2l-8.5,5.4l11.8,19.2c0,0,3.8,0.4,9.1-1.6  c7.2-2.7,10.5-5.5,10.5-5.5l-3.5-22.5L30.9,47.5z"/><polyline id="XMLID_32_" fill="none" stroke="#31352e" stroke-linecap="round" stroke-linejoin="round" stroke-miterlimit="10" stroke-width="6" points="31.3 47.4 40.6 45.9 44.1 68.1"/><polyline id="XMLID_286_" fill="none" stroke="#31352e" stroke-linecap="round" stroke-linejoin="round" stroke-miterlimit="10" stroke-width="6" points="29.3 41.9 29.3 41.9 29.3 41.9 29.3 41.9"/><polyline id="XMLID_38_" fill="none" stroke="#31352e" stroke-linecap="round" stroke-linejoin="round" stroke-miterlimit="10" stroke-width="6" points="21.2 50.9 12.7 56.3 24.5 75.6"/><polyline id="XMLID_33_" fill="none" stroke="#31352e" stroke-linecap="round" stroke-linejoin="round" stroke-miterlimit="10" stroke-width="6" points="27 63.8 19 45.9 18.9 45.8 29.3 41.9 29.3 41.9 29.3 41.9 38.1 72.2"/><path id="XMLID_262_" fill="none" stroke="#31352e" stroke-linecap="round" stroke-miterlimit="10" stroke-width="6" d="M48.3,63.7C38.1,78.3,17.3,75.4,17.3,75.4"/><path id="XMLID_913_" fill="#7aac2f" d="M113.9,104.8c-11.6,17.2-26.9,18.7-38.9,10.5s-16.4-22.8-4.8-40.1s34.9-30.5,46.9-22.3  S125.6,87.6,113.9,104.8z"/><path id="XMLID_972_" fill="#679e29" d="M113.9,104.8c11.6-17.2,15.2-43.7,3.2-51.9c-12-8.1-35.3,5.2-46.9,22.4  c-4.7,7-6.8,13.6-6.8,19.5c0-5.1,1.9-10.9,6-17c10.3-15.2,30.7-26.9,41.3-19.7c10.6,7.2,7.4,30.5-2.8,45.8  c-10.3,15.2-23.7,16.5-34.3,9.3c-5.3-3.6-8.8-8.5-9.9-14.5c1.1,6.9,5.2,12.6,11.3,16.8C87.1,123.5,102.3,122.1,113.9,104.8z"/><path id="XMLID_937_" fill="none" stroke="#31352e" stroke-linecap="round" stroke-miterlimit="10" stroke-width="6" d="M113.9,104.8c-11.6,17.2-26.9,18.7-38.9,10.5c-4.5-3.1-7.9-7-9.9-11.7  C62,95.9,63,86.1,70.3,75.3c11.6-17.2,34.9-30.5,46.9-22.3S125.6,87.6,113.9,104.8z"/><polyline id="XMLID_603_" fill="none" stroke="#31352e" stroke-linecap="round" stroke-miterlimit="10" stroke-width="6" points="97.5 70.9 99.5 79.4 109 77.9"/><polyline id="XMLID_602_" fill="none" stroke="#31352e" stroke-linecap="round" stroke-miterlimit="10" stroke-width="6" points="87.8 77.9 91.5 91.2 105.8 90"/><polyline id="XMLID_534_" fill="none" stroke="#31352e" stroke-linecap="round" stroke-miterlimit="10" stroke-width="6" points="76 86.5 81.6 105.9 101.6 103.8"/><line id="XMLID_914_" x1="68.7" x2="104.7" y1="124.8" y2="71.4" fill="none" stroke="#31352e" stroke-linecap="round" stroke-miterlimit="10" stroke-width="6"/><path id="XMLID_20_" fill="none" stroke="#31352e" stroke-linecap="round" stroke-linejoin="round" stroke-miterlimit="10" stroke-width="6" d="M59.7,31c-1.4,5.4-4.6,12.4-9.1,18.2"/></svg>